<svg width="42" height="24" viewBox="0 0 42 24" fill="none" xmlns="http://www.w3.org/2000/svg">
<path fillRule="evenodd" ="evenodd" d="M13.2668 16.2247C15.2544 18.0529 18.1526 19.4127 21.1221 19.4127C24.1256 19.4127 26.9996 18.1724 28.9445 16.2556L30.8008 18.0851C28.3703 20.4805 24.8314 22 21.1221 22C17.3789 22 13.8634 20.3126 11.4756 18.1161L13.2668 16.2247Z" fill="#0DC1D2"/>
<path d="M20.8759 3.94978C21.704 2.64993 23.1609 2 25.2466 2C25.1604 2.41782 24.7064 4.25032 24.5795 4.69255C23.46 4.69255 22.5858 5.02525 21.9571 5.69065C21.3283 6.34058 21.0139 7.28452 21.0139 8.52247V14.6613H18.1385V2.19742H20.8759V3.94978Z" fill="#0DC1D2"/>
<path d="M31.7884 14.8834C30.5446 14.8834 29.4237 14.6087 28.4256 14.0591C27.4276 13.5095 26.6445 12.748 26.0763 11.7745C25.5235 10.7852 25.2471 9.6704 25.2471 8.42995C25.2471 7.18949 25.5235 6.08251 26.0763 5.10898C26.6445 4.13546 27.4276 3.37392 28.4256 2.82435C29.4237 2.27478 30.5446 2 31.7884 2C33.0475 2 34.1761 2.27478 35.1742 2.82435C36.1723 3.37392 36.9477 4.13546 37.5005 5.10898C38.0686 6.08251 38.3527 7.18949 38.3527 8.42995C38.3527 9.6704 38.0686 10.7852 37.5005 11.7745C36.9477 12.748 36.1723 13.5095 35.1742 14.0591C34.1761 14.6087 33.0475 14.8834 31.7884 14.8834ZM31.7884 12.3633C32.8479 12.3633 33.7231 12.0021 34.4141 11.2799C35.1051 10.5576 35.4506 9.60759 35.4506 8.42995C35.4506 7.2523 35.1051 6.30233 34.4141 5.58004C33.7231 4.85775 32.8479 4.49661 31.7884 4.49661C30.7289 4.49661 29.8537 4.85775 29.1627 5.58004C28.4871 6.30233 28.1492 7.2523 28.1492 8.42995C28.1492 9.60759 28.4871 10.5576 29.1627 11.2799C29.8537 12.0021 30.7289 12.3633 31.7884 12.3633Z" fill="#0DC1D2"/>
<path d="M10.4257 2C11.6073 2 12.6601 2.26463 13.5841 2.79389C14.5233 3.32315 15.258 4.07035 15.7882 5.03547C16.3184 6.0006 16.5834 7.14717 16.5834 8.40806C16.5834 9.66894 16.3184 10.7999 15.7882 11.7806C15.258 12.7458 14.5233 13.5284 13.5841 14.0576C12.6601 14.5869 11.6073 14.8809 10.4257 14.8809C8.78975 14.8809 7.49459 14.2119 6.54026 13.0911V19.1039H3.7V2.19833H6.40393V3.77458C6.87352 3.18306 7.44915 2.73941 8.13081 2.44365C8.82763 2.14788 9.5926 2 10.4257 2ZM10.1076 12.2739C11.1529 12.2739 12.0087 11.9159 12.6752 11.1998C13.3569 10.4838 13.6977 9.54198 13.6977 8.37449C13.6977 7.207 13.3569 6.26523 12.6752 5.54917C12.0087 4.83311 11.1529 4.47508 10.1076 4.47508C9.42598 4.47508 8.81248 4.63853 8.26715 4.96542C7.72181 5.27675 7.29009 5.72818 6.97198 6.31971C6.65387 6.91124 6.49482 7.59617 6.49482 8.37449C6.49482 9.15282 6.65387 9.83774 6.97198 10.4293C7.29009 11.0208 7.72181 11.48 8.26715 11.8069C8.81248 12.1182 9.42598 12.2739 10.1076 12.2739Z" fill="#0DC1D2"/>
</svg>
